<?xml version="1.0" encoding="utf-8"?>
<!-- Generator: Adobe Illustrator 22.1.0, SVG Export Plug-In . SVG Version: 6.00 Build 0)  -->
<svg version="1.1" id="Layer_1" xmlns="http://www.w3.org/2000/svg" xmlns:xlink="http://www.w3.org/1999/xlink" x="0px" y="0px"
	 viewBox="0 0 20 20" style="enable-background:new 0 0 20 20;" xml:space="preserve">
<style type="text/css">
	.st0{fill:#FFB600;}
</style>
<g>
	<path class="st0" d="M10.2,10.7L3,19.4c-0.6,0.7-1.6,0.8-2.3,0.2l0,0C-0.1,19-0.2,17.8,0.4,17l4.8-5.8c0.6-0.7,0.6-1.7,0-2.4L0.4,3
		c-0.6-0.8-0.5-2,0.2-2.6l0,0C1.4-0.2,2.4-0.1,3,0.6l7.2,8.7c0.2,0.2,0.2,0.4,0.2,0.7l0,0C10.4,10.3,10.3,10.5,10.2,10.7z
		 M19.8,10.7l-7.2,8.7c-0.6,0.7-1.6,0.8-2.3,0.2l0,0C9.5,19,9.4,17.8,10,17l4.8-5.8c0.6-0.7,0.6-1.7,0-2.4L10,3
		c-0.6-0.8-0.5-2,0.2-2.6l0,0C11-0.2,12-0.1,12.6,0.6l7.2,8.7C19.9,9.5,20,9.8,20,10l0,0C20,10.3,19.9,10.5,19.8,10.7z"/>
</g>
</svg>
