<?xml version="1.0" encoding="utf-8"?>
<!-- Generator: Adobe Illustrator 22.1.0, SVG Export Plug-In . SVG Version: 6.00 Build 0)  -->
<svg version="1.1" id="Layer_1" xmlns="http://www.w3.org/2000/svg" xmlns:xlink="http://www.w3.org/1999/xlink" x="0px" y="0px"
	 viewBox="0 0 323.9 101.6" style="enable-background:new 0 0 323.9 101.6;" xml:space="preserve">
<style type="text/css">
	.st0{fill:#F4F4F4;}
	.st1{fill:#FFB600;}
</style>
<g>
	<g>
		<path class="st0" d="M28.4,64C12.5,64,8,56.5,7.5,55.6c-1-1.8-0.3-4,1.5-5c1.8-1,4-0.3,4.9,1.4c0.1,0.1,0.9,1.2,2.8,2.2
			c3.7,2,8.4,2.4,11.7,2.4c4.8,0,8.5-1,10.6-2.9c1.6-1.5,2-3.3,2-4.5c0-2.7-0.8-4.8-2.6-6.4c-2.3-2.3-6.2-4-11.8-5.1
			c-4-0.9-7.5-2.3-10.3-4.2c-2.3-1.6-4.2-3.6-5.5-5.9c-2.1-3.7-2.1-7-2.1-7.8c0-3.9,1.8-7.8,5-10.6c1.5-1.4,3.4-2.5,5.6-3.3
			c2.2-0.8,4.6-1.2,7.1-1.2c14.3,0,18.5,6.7,18.9,7.5c1,1.8,0.4,4-1.4,5c-1.8,1-4,0.4-4.9-1.3c-0.1-0.1-0.8-1-2.4-1.9
			c-1.8-0.9-4.9-2-10.2-2c-4,0-6.4,1.4-7.8,2.6c-1.5,1.4-2.5,3.3-2.5,5.2V20c0,0.3,0,2.1,1.3,4.3c0.8,1.3,1.9,2.4,3.4,3.4
			c1.9,1.2,4.4,2.2,7.4,2.9c7,1.4,12.1,3.7,15.5,7c3.2,3.1,4.8,7,4.8,11.7c0,3.8-1.5,7.3-4.3,10C40.5,62.3,35.2,64,28.4,64z"/>
		<path class="st0" d="M146.6,63.1h-32c-2,0-3.7-1.6-3.7-3.7V9.1c0-2.1,1.7-3.7,3.7-3.7c2.1,0,3.7,1.6,3.7,3.7v46.6h28.3
			c2.1,0,3.7,1.6,3.7,3.7C150.3,61.5,148.6,63.1,146.6,63.1z"/>
		<path class="st0" d="M243.1,64c-4.1,0-8.1-0.8-11.8-2.4c-3.5-1.5-6.7-3.7-9.5-6.4c-2.8-2.7-4.9-5.9-6.4-9.5
			c-1.6-3.7-2.3-7.5-2.3-11.5c0-4,0.8-7.9,2.3-11.6c1.5-3.5,3.7-6.7,6.5-9.5c2.8-2.8,6.1-4.9,9.7-6.4c3.7-1.5,7.7-2.3,11.7-2.3
			c6.6,0,12.8,2.1,17.9,6c1.6,1.2,1.9,3.5,0.7,5.1c-1.2,1.6-3.6,1.9-5.1,0.7c-3.9-3-8.5-4.5-13.5-4.5c-3.1,0-6.1,0.6-8.9,1.8
			c-2.7,1.2-5.2,2.8-7.3,4.9c-2.1,2.1-3.7,4.5-4.9,7.2c-1.2,2.7-1.8,5.6-1.8,8.6c0,3,0.6,5.9,1.8,8.6c1.2,2.7,2.8,5.1,4.9,7.2
			c4.3,4.3,10,6.7,16.1,6.7c2.7,0,5.3-0.5,7.8-1.4c2.4-0.9,4.6-2.2,6.6-3.8c1.5-1.3,3.8-1.1,5.1,0.4c1.3,1.5,1.1,3.9-0.4,5.1
			c-2.6,2.2-5.6,3.9-8.7,5.1C250.2,63.4,246.6,64,243.1,64z"/>
		<path class="st0" d="M320.5,9.1c0,2.1-1.6,3.7-3.7,3.7h-16.1v46.6c0,2.1-1.7,3.7-3.7,3.7c-2.1,0-3.7-1.6-3.7-3.7V12.8h-16.1
			c-2.1,0-3.7-1.6-3.7-3.7s1.6-3.7,3.7-3.7h39.5C318.9,5.5,320.5,7.1,320.5,9.1z"/>
		<path class="st0" d="M199.9,12.5c1.3-0.6,2.2-1.8,2.2-3.3c0-2.1-1.6-3.7-3.7-3.7h-34.3c-2,0-3.7,1.6-3.7,3.7v3.3H199.9z"/>
		<path class="st0" d="M97.9,12.5c1.3-0.6,2.2-1.8,2.2-3.3c0-2.1-1.6-3.7-3.7-3.7H62.1c-2,0-3.7,1.6-3.7,3.7v3.3H97.9z"/>
		<path class="st1" d="M195.7,37.7c1.6-0.4,2.8-1.8,2.8-3.6c0-2-1.6-3.7-3.7-3.7h-34.5v7.2H195.7z"/>
		<path class="st0" d="M199.1,55.7h-31.4h-7.3v3.7c0,2.1,1.7,3.7,3.7,3.7h35c2.1,0,3.7-1.6,3.7-3.7
			C202.8,57.3,201.2,55.7,199.1,55.7z"/>
		<path class="st1" d="M93.7,37.7c1.6-0.4,2.8-1.8,2.8-3.6c0-2-1.6-3.7-3.7-3.7H58.4v7.2H93.7z"/>
		<path class="st0" d="M97.1,55.7H65.7h-7.3v3.7c0,2.1,1.7,3.7,3.7,3.7h35c2.1,0,3.7-1.6,3.7-3.7C100.8,57.3,99.2,55.7,97.1,55.7z"
			/>
	</g>
	<g>
		<path class="st1" d="M88.8,86.4l-8,9.2c-0.7,0.8-1.8,0.9-2.6,0.2l0,0c-0.9-0.7-1-1.9-0.3-2.8l5.3-6.1c0.6-0.7,0.6-1.8,0-2.5
			l-5.4-6.2c-0.7-0.8-0.6-2.1,0.3-2.8l0,0c0.8-0.6,1.9-0.5,2.6,0.3l8,9.2c0.2,0.2,0.3,0.5,0.3,0.7l0,0C89.1,86,89,86.2,88.8,86.4z
			 M99.5,86.4l-8,9.2c-0.7,0.8-1.8,0.9-2.6,0.2l0,0c-0.9-0.7-1-1.9-0.3-2.8l5.3-6.1c0.6-0.7,0.6-1.8,0-2.5l-5.4-6.2
			c-0.7-0.8-0.6-2.1,0.3-2.8l0,0c0.8-0.6,1.9-0.5,2.6,0.2l8,9.2c0.2,0.2,0.3,0.5,0.3,0.7l0,0C99.8,86,99.7,86.2,99.5,86.4z"/>
	</g>
	<g>
		<path class="st0" d="M121.4,86.4h-8.5c-0.1,0.4-0.1,0.8-0.1,1.1c0,2.1,1.5,3.8,3.9,3.8c1.5,0,3-0.6,4-1.4l-0.4,2.2
			c-0.8,0.6-2.1,1.2-4.3,1.2c-3.6,0-5.7-2.8-5.6-5.9c0.1-4.2,3.3-7.1,6.8-7.1c2.6,0,4.6,1.7,4.6,4.1
			C121.9,84.9,121.7,85.7,121.4,86.4z M117.1,82c-1.7,0-3.1,1-3.8,2.8h6.2c0,0,0.1-0.3,0.1-0.8C119.7,82.9,118.8,82,117.1,82z"/>
		<path class="st0" d="M135,92.9h-2.5l1.3-7.5c0.4-2.2-0.6-3.1-1.9-3.1c-1.6,0-4.1,1.5-4.8,5.4l-0.9,5.2h-2.5l1.5-8.7
			c0.3-1.7,0.4-2.9,0.4-3.6h2.3c0,0.6,0,1.7-0.2,2.7c1.3-2,3.3-3.1,5.2-3.1c2.3,0,3.9,1.8,3.4,4.8L135,92.9z"/>
		<path class="st0" d="M150.4,93.5c-0.9,5-3.1,6.7-7,6.7c-1.5,0-3-0.5-4.2-1.1v-2.2c1.5,0.9,2.7,1.2,4.4,1.2c2.2,0,3.8-1.3,4.4-4.8
			l0.3-2c-1.1,1.2-2.4,1.9-4.3,1.9c-3.6,0-5.1-3.3-4.5-6.8c0.6-3.6,3.4-6.3,6.8-6.3c1.6,0,3.3,1,3.7,2.1l0.8-1.7h1.9L150.4,93.5z
			 M149.3,86.7c0.5-2.8-0.8-4.6-2.8-4.6s-4,1.8-4.5,4.6s0.8,4.6,2.8,4.6S148.8,89.5,149.3,86.7z"/>
		<path class="st0" d="M168.2,80.6l-1.4,8.4c-0.3,1.9-0.4,2.8-0.4,3.9h-2.2c0-0.5,0-1.5,0-1.9c-1.2,1.4-2.6,2.3-4.6,2.3
			c-3.6,0-5.1-3.3-4.5-6.8c0.6-3.6,3.4-6.3,6.8-6.3c1.6,0,3.3,1,3.7,2.1l0.8-1.7H168.2z M164.8,86.7c0.5-2.8-0.8-4.6-2.8-4.6
			s-4,1.8-4.5,4.6s0.8,4.6,2.8,4.6S164.4,89.5,164.8,86.7z"/>
		<path class="st0" d="M181.5,93.5c-0.9,5-3.1,6.7-7,6.7c-1.5,0-3-0.5-4.2-1.1v-2.2c1.5,0.9,2.7,1.2,4.4,1.2c2.2,0,3.8-1.3,4.4-4.8
			l0.3-2c-1.1,1.2-2.4,1.9-4.3,1.9c-3.6,0-5.1-3.3-4.5-6.8c0.6-3.6,3.4-6.3,6.8-6.3c1.6,0,3.3,1,3.7,2.1l0.8-1.7h1.9L181.5,93.5z
			 M180.4,86.7c0.5-2.8-0.8-4.6-2.8-4.6s-4,1.8-4.5,4.6s0.8,4.6,2.8,4.6S179.9,89.5,180.4,86.7z"/>
		<path class="st0" d="M187.9,80.6h2.5l-2.2,12.3h-2.5L187.9,80.6z M191.1,76.4h-2.5l0.5-2.9h2.5L191.1,76.4z"/>
		<path class="st0" d="M203.5,92.9h-2.5l1.3-7.5c0.4-2.2-0.6-3.1-1.9-3.1c-1.6,0-4.1,1.5-4.8,5.4l-0.9,5.2h-2.5l1.5-8.7
			c0.3-1.7,0.4-2.9,0.4-3.6h2.3c0,0.6,0,1.7-0.2,2.7c1.3-2,3.3-3.1,5.2-3.1c2.3,0,3.9,1.8,3.4,4.8L203.5,92.9z"/>
		<path class="st0" d="M219,93.5c-0.9,5-3.1,6.7-7,6.7c-1.5,0-3-0.5-4.2-1.1v-2.2c1.5,0.9,2.7,1.2,4.4,1.2c2.2,0,3.8-1.3,4.4-4.8
			l0.3-2c-1.1,1.2-2.4,1.9-4.3,1.9c-3.6,0-5.1-3.3-4.5-6.8c0.6-3.6,3.4-6.3,6.8-6.3c1.6,0,3.3,1,3.7,2.1l0.8-1.7h1.9L219,93.5z
			 M217.8,86.7c0.5-2.8-0.8-4.6-2.8-4.6s-4,1.8-4.5,4.6s0.8,4.6,2.8,4.6S217.4,89.5,217.8,86.7z"/>
		<path class="st0" d="M240,93.5c-0.9,5-3.1,6.7-7,6.7c-1.5,0-3-0.5-4.2-1.1v-2.2c1.5,0.9,2.7,1.2,4.4,1.2c2.2,0,3.8-1.3,4.4-4.8
			l0.3-2c-1.1,1.2-2.4,1.9-4.3,1.9c-3.6,0-5.1-3.3-4.5-6.8c0.6-3.6,3.4-6.3,6.8-6.3c1.6,0,3.3,1,3.7,2.1l0.8-1.7h1.9L240,93.5z
			 M238.9,86.7c0.5-2.8-0.8-4.6-2.8-4.6s-4,1.8-4.5,4.6s0.8,4.6,2.8,4.6S238.4,89.5,238.9,86.7z"/>
		<path class="st0" d="M257.8,80.6l-1.4,8.4c-0.3,1.9-0.4,2.8-0.4,3.9h-2.2c0-0.5,0-1.5,0-1.9c-1.2,1.4-2.6,2.3-4.6,2.3
			c-3.6,0-5.1-3.3-4.5-6.8c0.6-3.6,3.4-6.3,6.8-6.3c1.6,0,3.3,1,3.7,2.1l0.8-1.7H257.8z M254.4,86.7c0.5-2.8-0.8-4.6-2.8-4.6
			s-4,1.8-4.5,4.6s0.8,4.6,2.8,4.6S253.9,89.5,254.4,86.7z"/>
		<path class="st0" d="M278.6,92.9h-2.5l1.4-7.8c0.3-1.8-0.3-2.8-1.6-2.8c-1.5,0-3.9,1.5-4.6,5.3l-0.9,5.3h-2.5l1.4-7.8
			c0.3-1.8-0.3-2.8-1.5-2.8c-1.5,0-3.9,1.5-4.6,5.4l-0.9,5.2h-2.5l1.5-8.7c0.3-1.4,0.4-2.9,0.4-3.6h2.3c0,0.6,0,1.6-0.2,2.7
			c1.1-1.9,3.3-3.1,5-3.1c1.9,0,3,1.2,3.2,2.9c1.3-1.9,3.3-2.9,5-2.9c2.2,0,3.6,1.8,3.1,4.6L278.6,92.9z"/>
		<path class="st0" d="M293.9,86.4h-8.5c-0.1,0.4-0.1,0.8-0.1,1.1c0,2.1,1.5,3.8,3.9,3.8c1.5,0,3-0.6,4-1.4l-0.4,2.2
			c-0.8,0.6-2.1,1.2-4.3,1.2c-3.6,0-5.7-2.8-5.6-5.9c0.1-4.2,3.3-7.1,6.8-7.1c2.6,0,4.6,1.7,4.6,4.1
			C294.4,84.9,294.2,85.7,293.9,86.4z M289.7,82c-1.7,0-3.1,1-3.8,2.8h6.2c0,0,0.1-0.3,0.1-0.8C292.2,82.9,291.3,82,289.7,82z"/>
		<path class="st0" d="M295.6,91.9l0.7-1.8c0.6,0.5,1.9,1.3,3.7,1.3c1.2,0,2.3-0.5,2.5-1.5c0.1-0.9-0.2-1.8-2.3-2.3
			c-2.6-0.7-3.5-2.2-3.1-4.2c0.3-1.8,2-3.1,4.5-3.1c1.8,0,3.3,0.8,3.9,1.2l-0.7,1.7c-0.8-0.5-1.6-1-3.1-1c-1.3,0-2.1,0.5-2.2,1.2
			c-0.2,0.9,0.1,1.6,2.1,2.2c2.5,0.7,3.6,2.4,3.2,4.2c-0.4,2.6-2.5,3.6-4.8,3.6C297.4,93.3,295.6,91.9,295.6,91.9z"/>
	</g>
</g>
</svg>
