<?xml version="1.0" encoding="utf-8"?>
<!-- Generator: Adobe Illustrator 22.1.0, SVG Export Plug-In . SVG Version: 6.00 Build 0)  -->
<svg version="1.1" id="Layer_1" xmlns="http://www.w3.org/2000/svg" xmlns:xlink="http://www.w3.org/1999/xlink" x="0px" y="0px"
	 viewBox="0 0 307 61" style="enable-background:new 0 0 307 61;" xml:space="preserve">
<style type="text/css">
	.st0{fill:#3D3D3D;}
	.st1{fill:#FFB600;}
	.st2{fill:none;}
</style>
<g>
	<g>
		<path class="st0" d="M21.6,60.7c-15.9,0-20.4-7.5-20.9-8.4c-1-1.8-0.3-4,1.5-5c1.8-1,4-0.3,4.9,1.4c0.1,0.1,0.9,1.2,2.8,2.2
			c3.7,2,8.4,2.4,11.7,2.4c4.8,0,8.5-1,10.6-2.9c1.6-1.5,2-3.3,2-4.5c0-2.7-0.8-4.8-2.6-6.4c-2.3-2.3-6.2-4-11.8-5.1
			c-4-0.9-7.5-2.3-10.3-4.2c-2.3-1.6-4.2-3.6-5.5-5.9c-2.1-3.7-2.1-7-2.1-7.8c0-3.9,1.8-7.8,5-10.6c1.5-1.4,3.4-2.5,5.6-3.3
			c2.2-0.8,4.6-1.2,7.1-1.2c14.3,0,18.5,6.7,18.9,7.5c1,1.8,0.4,4-1.4,5c-1.8,1-4,0.4-4.9-1.3c-0.1-0.1-0.8-1-2.4-1.9
			c-1.8-0.9-4.9-2-10.2-2c-4,0-6.4,1.4-7.8,2.6c-1.5,1.4-2.5,3.3-2.5,5.2v0.1c0,0.3,0,2.1,1.3,4.3c0.8,1.3,1.9,2.4,3.4,3.4
			c1.9,1.2,4.4,2.2,7.4,2.9c7,1.4,12.1,3.7,15.5,7c3.2,3.1,4.8,7,4.8,11.7c0,3.8-1.5,7.3-4.3,10C33.7,59,28.4,60.7,21.6,60.7z"/>
		<path class="st0" d="M137.4,59.8h-32c-2,0-3.7-1.6-3.7-3.7V5.8c0-2.1,1.7-3.7,3.7-3.7c2.1,0,3.7,1.6,3.7,3.7v46.6h28.3
			c2.1,0,3.7,1.6,3.7,3.7C141.1,58.2,139.5,59.8,137.4,59.8z"/>
		<path class="st0" d="M232.9,60.7c-4.1,0-8.1-0.8-11.8-2.4c-3.5-1.5-6.7-3.7-9.5-6.4c-2.8-2.7-4.9-5.9-6.4-9.5
			c-1.6-3.7-2.3-7.5-2.3-11.5c0-4,0.8-7.9,2.3-11.6c1.5-3.5,3.7-6.7,6.5-9.5c2.8-2.8,6.1-4.9,9.7-6.4C225.1,1.8,229,1,233.1,1
			c6.6,0,12.8,2.1,17.9,6c1.6,1.2,1.9,3.5,0.7,5.1c-1.2,1.6-3.6,1.9-5.1,0.7c-3.9-3-8.5-4.5-13.5-4.5c-3.1,0-6.1,0.6-8.9,1.8
			c-2.7,1.2-5.2,2.8-7.3,4.9c-2.1,2.1-3.7,4.5-4.9,7.2c-1.2,2.7-1.8,5.6-1.8,8.6s0.6,5.9,1.8,8.6c1.2,2.7,2.8,5.1,4.9,7.2
			c4.3,4.3,10,6.7,16.1,6.7c2.7,0,5.3-0.5,7.8-1.4c2.4-0.9,4.6-2.2,6.6-3.8c1.5-1.3,3.8-1.1,5.1,0.4c1.3,1.5,1.1,3.9-0.4,5.1
			c-2.6,2.2-5.6,3.9-8.7,5.1C239.9,60.1,236.4,60.7,232.9,60.7z"/>
		<path class="st0" d="M306.7,5.8c0,2.1-1.6,3.7-3.7,3.7H287v46.6c0,2.1-1.7,3.7-3.7,3.7c-2.1,0-3.7-1.6-3.7-3.7V9.5h-16.1
			c-2.1,0-3.7-1.6-3.7-3.7s1.6-3.7,3.7-3.7h39.5C305.1,2.2,306.7,3.8,306.7,5.8z"/>
		<g>
			<path class="st0" d="M191,9.2c1.3-0.6,2.2-1.8,2.2-3.3c0-2.1-1.6-3.7-3.7-3.7h-34.3c-2,0-3.7,1.6-3.7,3.7v3.3H191z"/>
			<path class="st1" d="M186.8,34.4c1.6-0.4,2.8-1.8,2.8-3.6c0-2-1.6-3.7-3.7-3.7h-34.5v7.2H186.8z"/>
			<path class="st0" d="M190.3,52.4h-31.4h-7.3V56c0,2.1,1.7,3.7,3.7,3.7h35c2.1,0,3.7-1.6,3.7-3.7C193.9,54,192.3,52.4,190.3,52.4z
				"/>
		</g>
		<g>
			<path class="st0" d="M88.4,9.2c1.3-0.6,2.2-1.8,2.2-3.3c0-2.1-1.6-3.7-3.7-3.7H52.6c-2,0-3.7,1.6-3.7,3.7v3.3H88.4z"/>
			<path class="st1" d="M84.2,34.4c1.6-0.4,2.8-1.8,2.8-3.6c0-2-1.6-3.7-3.7-3.7H49v7.2H84.2z"/>
			<path class="st0" d="M87.7,52.4H56.3H49V56c0,2.1,1.7,3.7,3.7,3.7h35c2.1,0,3.7-1.6,3.7-3.7C91.3,54,89.7,52.4,87.7,52.4z"/>
		</g>
	</g>
	<rect x="153.3" y="-33.4" class="st2" width="0.9" height="110.4"/>
</g>
</svg>
